<svg width="35" height="27" viewBox="0 0 35 27" fill="none" xmlns="http://www.w3.org/2000/svg">
<path d="M1.33148 0.0020646H33.2375C33.5901 0.0020646 33.9283 0.142332 34.1776 0.39201C34.4269 0.641688 34.567 0.980323 34.567 1.33342V25.6482C34.567 26.0013 34.4269 26.3399 34.1776 26.5896C33.9283 26.8393 33.5901 26.9795 33.2375 26.9795H1.33148C1.15424 26.9897 0.976857 26.9622 0.810964 26.8989C0.645071 26.8356 0.494417 26.7379 0.368884 26.6122C0.243352 26.4865 0.145776 26.3356 0.0825581 26.1695C0.0193402 26.0033 -0.00809178 25.8257 0.0020616 25.6482V1.33342C-0.00809178 1.15592 0.0193402 0.97828 0.0825581 0.812146C0.145776 0.646011 0.243352 0.495138 0.368884 0.369422C0.494417 0.243706 0.645071 0.145988 0.810964 0.0826784C0.976857 0.0193683 1.15424 -0.00810357 1.33148 0.0020646ZM31.9081 3.78592L17.9142 17.8002C17.8491 17.8872 17.7645 17.9579 17.6674 18.0065C17.5702 18.0552 17.4631 18.0805 17.3545 18.0805C17.2459 18.0805 17.1387 18.0552 17.0416 18.0065C16.9444 17.9579 16.8599 17.8872 16.7947 17.8002L2.80084 3.78592V24.3168H31.9081V3.78592ZM30.7886 2.66478H3.78041L17.2845 16.1886L30.7886 2.66478Z" fill="white"/>
</svg>
