<svg width="32" height="34" viewBox="0 0 32 34" fill="none" xmlns="http://www.w3.org/2000/svg">
<path d="M7.21758 1.29303L11.9074 7.67228C12.1088 7.98347 12.2607 8.32732 12.3571 8.69024C12.4552 9.11381 12.4552 9.5561 12.3571 9.97967C12.2973 10.3861 12.1666 10.7773 11.9717 11.1334C11.7715 11.4571 11.5341 11.7535 11.265 12.0156L8.95218 13.6443C8.8291 13.9831 8.79397 14.3505 8.85045 14.7085C8.90693 15.0664 9.05295 15.4019 9.2734 15.6803C10.2802 17.3977 11.4654 18.9911 12.8069 20.4308C14.0453 21.7152 15.3771 22.8951 16.79 23.9597C17.0948 24.138 17.4374 24.2315 17.7858 24.2315C18.1342 24.2315 18.4768 24.138 18.7816 23.9597L20.452 21.4487C20.6893 21.1087 20.9969 20.8302 21.3514 20.6344C21.6353 20.5036 21.9411 20.4343 22.2508 20.4308C22.6337 20.3637 23.0243 20.3637 23.4072 20.4308C23.764 20.5303 24.0939 20.7162 24.3709 20.9737L30.4099 25.9278C30.8209 26.2733 31.1508 26.7146 31.3735 27.2172C31.5481 27.625 31.6566 28.0609 31.6947 28.5066C31.7911 28.9533 31.7911 29.4172 31.6947 29.8639C31.5427 30.2792 31.3007 30.6511 30.9881 30.9497C30.558 31.3874 30.0841 31.7742 29.5747 32.1034C28.9665 32.4749 28.3198 32.771 27.6473 32.9857C24.3127 34.1702 20.7029 34.1702 17.3682 32.9857C13.6627 31.5073 10.3079 29.1911 7.5388 26.1992C4.64801 23.2986 2.44675 19.7177 1.11435 15.7481C-0.197503 12.2402 -0.355877 8.36849 0.664638 4.75411C0.894387 3.98875 1.21839 3.25861 1.62831 2.58246C1.92477 2.03349 2.29237 1.53096 2.72046 1.08944C2.98414 0.67087 3.33596 0.322455 3.74837 0.0714762C4.17192 -0.0238254 4.60972 -0.0238254 5.03327 0.0714762C5.5036 0.0552473 5.96946 0.172416 6.3824 0.410798L7.28182 1.22517L7.21758 1.29303ZM9.98009 9.23316L5.29024 2.85391H4.6478C4.2773 3.16328 3.95251 3.52925 3.68413 3.93974C3.3864 4.45008 3.14906 4.99709 2.97744 5.56849C2.0508 8.54394 2.0508 11.7547 2.97744 14.7302C4.14104 18.2966 6.07694 21.5267 8.63096 24.1633C11.1201 26.8373 14.1516 28.8793 17.4967 30.1354C20.3301 31.149 23.4006 31.149 26.234 30.1354C26.7515 29.9756 27.248 29.7475 27.7116 29.4567C28.0909 29.2411 28.4374 28.9666 28.7395 28.6424L22.7648 23.7561H22.3793L20.5162 26.4707L20.1307 26.8779C19.3973 27.331 18.552 27.5409 17.7043 27.4804C16.8566 27.4199 16.0457 27.0917 15.3766 26.5386C13.8237 25.4013 12.3625 24.1301 11.008 22.7382C9.69088 21.3311 8.48746 19.8102 7.41031 18.1912C6.91798 17.4572 6.65356 16.5798 6.65356 15.6803C6.65356 14.7807 6.91798 13.9033 7.41031 13.1693V12.7621L9.91585 10.8619L9.98009 9.23316Z" fill="white"/>
</svg>
