<svg width="31" height="32" viewBox="0 0 31 32" fill="none" xmlns="http://www.w3.org/2000/svg">
<mask id="path-1-inside-1" fill="white">
<path d="M30.6667 16.6667C30.6667 25.135 23.8017 32 15.3333 32C6.86497 32 0 25.135 0 16.6667C0 8.1983 6.86497 1.33333 15.3333 1.33333C23.8017 1.33333 30.6667 8.1983 30.6667 16.6667Z"/>
</mask>
<path d="M30.6667 16.6667C30.6667 25.135 23.8017 32 15.3333 32C6.86497 32 0 25.135 0 16.6667C0 8.1983 6.86497 1.33333 15.3333 1.33333C23.8017 1.33333 30.6667 8.1983 30.6667 16.6667Z" fill="white"/>
<path d="M27.6667 16.6667C27.6667 23.4782 22.1448 29 15.3333 29V35C25.4586 35 33.6667 26.7919 33.6667 16.6667H27.6667ZM15.3333 29C8.52182 29 3 23.4782 3 16.6667H-3C-3 26.7919 5.20811 35 15.3333 35V29ZM3 16.6667C3 9.85515 8.52182 4.33333 15.3333 4.33333V-1.66667C5.20811 -1.66667 -3 6.54144 -3 16.6667H3ZM15.3333 4.33333C22.1448 4.33333 27.6667 9.85515 27.6667 16.6667H33.6667C33.6667 6.54144 25.4586 -1.66667 15.3333 -1.66667V4.33333Z" fill="#53ABC7" mask="url(#path-1-inside-1)"/>
<rect x="10.667" width="8.66667" height="13.3333" fill="white"/>
<path d="M14.9997 20L7.7828 11.5L22.2166 11.5L14.9997 20Z" fill="#53ABC7"/>
<rect x="12.667" y="4.57764e-05" width="4.66667" height="13.3333" fill="#53ABC7"/>
</svg>
