<svg width="31" height="32" fill="none" xmlns="http://www.w3.org/2000/svg">
    <mask id="a" fill="#fff">
        <path d="M30.667 16.667C30.667 25.135 23.802 32 15.333 32 6.865 32 0 25.135 0 16.667 0 8.198 6.865 1.333 15.333 1.333c8.469 0 15.334 6.865 15.334 15.334z"/>
    </mask>
    <path d="M30.667 16.667C30.667 25.135 23.802 32 15.333 32 6.865 32 0 25.135 0 16.667 0 8.198 6.865 1.333 15.333 1.333c8.469 0 15.334 6.865 15.334 15.334z" fill="#fff"/>
    <path d="M27.667 16.667C27.667 23.478 22.145 29 15.333 29v6c10.126 0 18.334-8.208 18.334-18.333h-6zM15.333 29C8.522 29 3 23.478 3 16.667h-6C-3 26.792 5.208 35 15.333 35v-6zM3 16.667C3 9.855 8.522 4.333 15.333 4.333v-6C5.208-1.667-3 6.541-3 16.667h6zM15.333 4.333c6.812 0 12.334 5.522 12.334 12.334h6c0-10.126-8.208-18.334-18.334-18.334v6z" fill="#53ABC7" mask="url(#a)"/>
    <path fill="#fff" d="M10.667 0h8.667v13.333h-8.667z"/>
    <path d="M15 20l-7.217-8.5h14.434L15 20z" fill="#53ABC7"/>
    <path fill="#53ABC7" d="M12.667 0h4.667v13.333h-4.667z"/>
</svg>
